<mxfile host="65bd71144e">
    <diagram id="jQs6yxECspEw916ndls4" name="Seite-1">
        <mxGraphModel dx="-148" dy="1789" grid="1" gridSize="10" guides="1" tooltips="1" connect="1" arrows="1" fold="1" page="1" pageScale="1" pageWidth="827" pageHeight="1169" math="0" shadow="0">
            <root>
                <mxCell id="0"/>
                <mxCell id="1" parent="0"/>
                <mxCell id="HdAeh4qbqGSW-Bejk3lR-7" value="" style="rounded=0;whiteSpace=wrap;html=1;fontColor=#00CC00;fillColor=none;dashed=1;" parent="1" vertex="1">
                    <mxGeometry x="2410" y="-880" width="270" height="40" as="geometry"/>
                </mxCell>
                <mxCell id="MGvzKNlJy8ga0nyBK8fZ-81" style="edgeStyle=orthogonalEdgeStyle;rounded=0;orthogonalLoop=1;jettySize=auto;html=1;exitX=0.5;exitY=1;exitDx=0;exitDy=0;entryX=0.5;entryY=0;entryDx=0;entryDy=0;endArrow=classic;endFill=1;strokeColor=#82b366;fillColor=#d5e8d4;" parent="1" source="MGvzKNlJy8ga0nyBK8fZ-18" target="MGvzKNlJy8ga0nyBK8fZ-75" edge="1">
                    <mxGeometry relative="1" as="geometry"/>
                </mxCell>
                <mxCell id="MGvzKNlJy8ga0nyBK8fZ-18" value="helpIntent" style="rounded=0;whiteSpace=wrap;html=1;" parent="1" vertex="1">
                    <mxGeometry x="840" y="-880" width="160" height="60" as="geometry"/>
                </mxCell>
                <mxCell id="y3xUDOiN2P6re7Y66Ths-21" style="edgeStyle=orthogonalEdgeStyle;rounded=0;orthogonalLoop=1;jettySize=auto;html=1;exitX=0.5;exitY=1;exitDx=0;exitDy=0;endArrow=none;endFill=0;strokeColor=#82b366;fillColor=#d5e8d4;" parent="1" source="MGvzKNlJy8ga0nyBK8fZ-19" edge="1">
                    <mxGeometry relative="1" as="geometry">
                        <mxPoint x="1639.9999999999995" y="-600" as="targetPoint"/>
                        <Array as="points">
                            <mxPoint x="1520" y="-600"/>
                        </Array>
                    </mxGeometry>
                </mxCell>
                <mxCell id="MGvzKNlJy8ga0nyBK8fZ-19" value="getSpellDescriptionIntent" style="rounded=0;whiteSpace=wrap;html=1;" parent="1" vertex="1">
                    <mxGeometry x="1440" y="-880" width="160" height="60" as="geometry"/>
                </mxCell>
                <mxCell id="y3xUDOiN2P6re7Y66Ths-22" style="edgeStyle=orthogonalEdgeStyle;rounded=0;orthogonalLoop=1;jettySize=auto;html=1;exitX=0.5;exitY=1;exitDx=0;exitDy=0;endArrow=none;endFill=0;strokeColor=#82b366;fillColor=#d5e8d4;" parent="1" source="MGvzKNlJy8ga0nyBK8fZ-20" edge="1">
                    <mxGeometry relative="1" as="geometry">
                        <mxPoint x="1760" y="-600" as="targetPoint"/>
                        <Array as="points">
                            <mxPoint x="1760" y="-710"/>
                            <mxPoint x="1760" y="-710"/>
                        </Array>
                    </mxGeometry>
                </mxCell>
                <mxCell id="MGvzKNlJy8ga0nyBK8fZ-20" value="getAllDetailsIntent" style="rounded=0;whiteSpace=wrap;html=1;" parent="1" vertex="1">
                    <mxGeometry x="1680" y="-880" width="160" height="60" as="geometry"/>
                </mxCell>
                <mxCell id="MGvzKNlJy8ga0nyBK8fZ-21" value="getSingleDetailIntent" style="rounded=0;whiteSpace=wrap;html=1;" parent="1" vertex="1">
                    <mxGeometry x="1920" y="-880" width="160" height="60" as="geometry"/>
                </mxCell>
                <mxCell id="VpkuCTAzcdKKamtgVb58-14" style="edgeStyle=orthogonalEdgeStyle;rounded=0;orthogonalLoop=1;jettySize=auto;html=1;exitX=0.5;exitY=1;exitDx=0;exitDy=0;entryX=0.5;entryY=0;entryDx=0;entryDy=0;strokeColor=#82b366;fillColor=#d5e8d4;" parent="1" source="MGvzKNlJy8ga0nyBK8fZ-30" target="VpkuCTAzcdKKamtgVb58-12" edge="1">
                    <mxGeometry relative="1" as="geometry"/>
                </mxCell>
                <mxCell id="MGvzKNlJy8ga0nyBK8fZ-30" value="InvokeSpellAssistantIntent" style="rounded=0;whiteSpace=wrap;html=1;" parent="1" vertex="1">
                    <mxGeometry x="1200" y="-880" width="160" height="60" as="geometry"/>
                </mxCell>
                <mxCell id="HdAeh4qbqGSW-Bejk3lR-1" style="edgeStyle=orthogonalEdgeStyle;rounded=0;orthogonalLoop=1;jettySize=auto;html=1;exitX=0.5;exitY=0;exitDx=0;exitDy=0;startArrow=classic;startFill=1;endArrow=none;endFill=0;fillColor=#d5e8d4;strokeColor=#82b366;" parent="1" source="MGvzKNlJy8ga0nyBK8fZ-42" edge="1">
                    <mxGeometry relative="1" as="geometry">
                        <mxPoint x="2360.4285714285716" y="-600" as="targetPoint"/>
                        <Array as="points">
                            <mxPoint x="2600" y="-600"/>
                        </Array>
                    </mxGeometry>
                </mxCell>
                <mxCell id="HdAeh4qbqGSW-Bejk3lR-3" style="edgeStyle=orthogonalEdgeStyle;rounded=0;orthogonalLoop=1;jettySize=auto;html=1;exitX=0.5;exitY=1;exitDx=0;exitDy=0;dashed=1;startArrow=none;startFill=0;endArrow=classic;endFill=1;" parent="1" source="MGvzKNlJy8ga0nyBK8fZ-42" edge="1">
                    <mxGeometry relative="1" as="geometry">
                        <mxPoint x="2600" y="-360" as="targetPoint"/>
                    </mxGeometry>
                </mxCell>
                <mxCell id="MGvzKNlJy8ga0nyBK8fZ-42" value="skillTerminationIntent" style="rounded=0;whiteSpace=wrap;html=1;" parent="1" vertex="1">
                    <mxGeometry x="2520" y="-520" width="160" height="60" as="geometry"/>
                </mxCell>
                <mxCell id="MGvzKNlJy8ga0nyBK8fZ-69" value="" style="endArrow=classic;dashed=1;html=1;endFill=1;" parent="1" edge="1">
                    <mxGeometry width="50" height="50" relative="1" as="geometry">
                        <mxPoint x="2420" y="-870" as="sourcePoint"/>
                        <mxPoint x="2460" y="-870" as="targetPoint"/>
                    </mxGeometry>
                </mxCell>
                <mxCell id="MGvzKNlJy8ga0nyBK8fZ-70" value="= return to ready-state" style="text;html=1;strokeColor=none;fillColor=none;align=left;verticalAlign=middle;whiteSpace=wrap;rounded=0;" parent="1" vertex="1">
                    <mxGeometry x="2460" y="-880" width="130" height="20" as="geometry"/>
                </mxCell>
                <mxCell id="y3xUDOiN2P6re7Y66Ths-39" style="edgeStyle=orthogonalEdgeStyle;rounded=0;orthogonalLoop=1;jettySize=auto;html=1;exitX=0.5;exitY=1;exitDx=0;exitDy=0;dashed=1;endArrow=classic;endFill=1;strokeColor=#000000;" parent="1" source="MGvzKNlJy8ga0nyBK8fZ-72" edge="1">
                    <mxGeometry relative="1" as="geometry">
                        <mxPoint x="919.9411764705883" y="-360" as="targetPoint"/>
                    </mxGeometry>
                </mxCell>
                <mxCell id="MGvzKNlJy8ga0nyBK8fZ-72" value="helpSubIntent" style="rounded=0;whiteSpace=wrap;html=1;" parent="1" vertex="1">
                    <mxGeometry x="840" y="-720" width="160" height="60" as="geometry"/>
                </mxCell>
                <mxCell id="MGvzKNlJy8ga0nyBK8fZ-82" style="edgeStyle=orthogonalEdgeStyle;rounded=0;orthogonalLoop=1;jettySize=auto;html=1;exitX=0.5;exitY=1;exitDx=0;exitDy=0;entryX=0.5;entryY=0;entryDx=0;entryDy=0;endArrow=classic;endFill=1;strokeColor=#82b366;fillColor=#d5e8d4;" parent="1" source="MGvzKNlJy8ga0nyBK8fZ-75" target="MGvzKNlJy8ga0nyBK8fZ-72" edge="1">
                    <mxGeometry relative="1" as="geometry"/>
                </mxCell>
                <mxCell id="MGvzKNlJy8ga0nyBK8fZ-75" value="" style="ellipse;whiteSpace=wrap;html=1;aspect=fixed;" parent="1" vertex="1">
                    <mxGeometry x="905" y="-790" width="30" height="30" as="geometry"/>
                </mxCell>
                <mxCell id="VpkuCTAzcdKKamtgVb58-5" value="" style="endArrow=classic;html=1;fillColor=#d5e8d4;strokeColor=#82b366;endFill=1;" parent="1" edge="1">
                    <mxGeometry width="50" height="50" relative="1" as="geometry">
                        <mxPoint x="2420" y="-850" as="sourcePoint"/>
                        <mxPoint x="2460" y="-850" as="targetPoint"/>
                    </mxGeometry>
                </mxCell>
                <mxCell id="VpkuCTAzcdKKamtgVb58-6" value="= keep context for next functional Intent&amp;nbsp;" style="text;html=1;strokeColor=none;fillColor=none;align=left;verticalAlign=middle;whiteSpace=wrap;rounded=0;" parent="1" vertex="1">
                    <mxGeometry x="2460" y="-860" width="230" height="20" as="geometry"/>
                </mxCell>
                <mxCell id="y3xUDOiN2P6re7Y66Ths-37" style="edgeStyle=orthogonalEdgeStyle;rounded=0;orthogonalLoop=1;jettySize=auto;html=1;exitX=0.5;exitY=1;exitDx=0;exitDy=0;endArrow=classic;endFill=1;strokeColor=#000000;dashed=1;" parent="1" source="VpkuCTAzcdKKamtgVb58-9" edge="1">
                    <mxGeometry relative="1" as="geometry">
                        <mxPoint x="1159.9411764705883" y="-360" as="targetPoint"/>
                    </mxGeometry>
                </mxCell>
                <mxCell id="VpkuCTAzcdKKamtgVb58-9" value="specifySpellslotSubIntent" style="rounded=0;whiteSpace=wrap;html=1;" parent="1" vertex="1">
                    <mxGeometry x="1080" y="-720" width="160" height="60" as="geometry"/>
                </mxCell>
                <mxCell id="VpkuCTAzcdKKamtgVb58-13" style="edgeStyle=orthogonalEdgeStyle;rounded=0;orthogonalLoop=1;jettySize=auto;html=1;exitX=0;exitY=0.5;exitDx=0;exitDy=0;entryX=0.5;entryY=0;entryDx=0;entryDy=0;strokeColor=#82b366;fillColor=#d5e8d4;" parent="1" source="VpkuCTAzcdKKamtgVb58-12" target="VpkuCTAzcdKKamtgVb58-9" edge="1">
                    <mxGeometry relative="1" as="geometry"/>
                </mxCell>
                <mxCell id="y3xUDOiN2P6re7Y66Ths-38" style="edgeStyle=orthogonalEdgeStyle;rounded=0;orthogonalLoop=1;jettySize=auto;html=1;exitX=1;exitY=0.5;exitDx=0;exitDy=0;dashed=1;endArrow=classic;endFill=1;strokeColor=#000000;" parent="1" source="VpkuCTAzcdKKamtgVb58-12" edge="1">
                    <mxGeometry relative="1" as="geometry">
                        <mxPoint x="1320" y="-360" as="targetPoint"/>
                    </mxGeometry>
                </mxCell>
                <mxCell id="VpkuCTAzcdKKamtgVb58-12" value="" style="ellipse;whiteSpace=wrap;html=1;aspect=fixed;" parent="1" vertex="1">
                    <mxGeometry x="1265" y="-780" width="30" height="30" as="geometry"/>
                </mxCell>
                <mxCell id="VpkuCTAzcdKKamtgVb58-17" value="Spellslot specified" style="text;html=1;strokeColor=none;fillColor=none;align=center;verticalAlign=middle;whiteSpace=wrap;rounded=0;" parent="1" vertex="1">
                    <mxGeometry x="1310" y="-800" width="105" height="30" as="geometry"/>
                </mxCell>
                <mxCell id="VpkuCTAzcdKKamtgVb58-18" value="Spellslot not specified" style="text;html=1;strokeColor=none;fillColor=none;align=center;verticalAlign=middle;whiteSpace=wrap;rounded=0;" parent="1" vertex="1">
                    <mxGeometry x="1140" y="-800" width="125" height="30" as="geometry"/>
                </mxCell>
                <mxCell id="y3xUDOiN2P6re7Y66Ths-24" style="edgeStyle=orthogonalEdgeStyle;rounded=0;orthogonalLoop=1;jettySize=auto;html=1;exitX=0.5;exitY=0;exitDx=0;exitDy=0;endArrow=classic;endFill=1;strokeColor=#82b366;fillColor=#d5e8d4;entryX=0.5;entryY=0;entryDx=0;entryDy=0;" parent="1" target="y3xUDOiN2P6re7Y66Ths-1" edge="1">
                    <mxGeometry relative="1" as="geometry">
                        <mxPoint x="1639.9411764705883" y="-600" as="sourcePoint"/>
                    </mxGeometry>
                </mxCell>
                <mxCell id="y3xUDOiN2P6re7Y66Ths-29" style="edgeStyle=orthogonalEdgeStyle;rounded=0;orthogonalLoop=1;jettySize=auto;html=1;exitX=0.5;exitY=1;exitDx=0;exitDy=0;endArrow=classic;endFill=1;fillColor=#d5e8d4;strokeColor=#82b366;" parent="1" source="y3xUDOiN2P6re7Y66Ths-1" edge="1">
                    <mxGeometry relative="1" as="geometry">
                        <mxPoint x="1639.9411764705883" y="-360" as="targetPoint"/>
                    </mxGeometry>
                </mxCell>
                <mxCell id="y3xUDOiN2P6re7Y66Ths-1" value="getContextDescriptionIntent" style="rounded=0;whiteSpace=wrap;html=1;" parent="1" vertex="1">
                    <mxGeometry x="1560" y="-520" width="160" height="60" as="geometry"/>
                </mxCell>
                <mxCell id="y3xUDOiN2P6re7Y66Ths-25" style="edgeStyle=orthogonalEdgeStyle;rounded=0;orthogonalLoop=1;jettySize=auto;html=1;exitX=0.5;exitY=0;exitDx=0;exitDy=0;endArrow=none;endFill=0;strokeColor=#82b366;fillColor=#d5e8d4;startArrow=classic;startFill=1;" parent="1" source="y3xUDOiN2P6re7Y66Ths-2" edge="1">
                    <mxGeometry relative="1" as="geometry">
                        <mxPoint x="1879.9411764705883" y="-600" as="targetPoint"/>
                    </mxGeometry>
                </mxCell>
                <mxCell id="y3xUDOiN2P6re7Y66Ths-30" style="edgeStyle=orthogonalEdgeStyle;rounded=0;orthogonalLoop=1;jettySize=auto;html=1;exitX=0.5;exitY=1;exitDx=0;exitDy=0;endArrow=classic;endFill=1;strokeColor=#82b366;fillColor=#d5e8d4;" parent="1" source="y3xUDOiN2P6re7Y66Ths-2" edge="1">
                    <mxGeometry relative="1" as="geometry">
                        <mxPoint x="1879.9411764705883" y="-360" as="targetPoint"/>
                    </mxGeometry>
                </mxCell>
                <mxCell id="y3xUDOiN2P6re7Y66Ths-2" value="getContextAllDetailsIntent" style="rounded=0;whiteSpace=wrap;html=1;" parent="1" vertex="1">
                    <mxGeometry x="1800" y="-520" width="160" height="60" as="geometry"/>
                </mxCell>
                <mxCell id="y3xUDOiN2P6re7Y66Ths-26" style="edgeStyle=orthogonalEdgeStyle;rounded=0;orthogonalLoop=1;jettySize=auto;html=1;exitX=0.5;exitY=0;exitDx=0;exitDy=0;endArrow=none;endFill=0;strokeColor=#82b366;fillColor=#d5e8d4;startArrow=classic;startFill=1;" parent="1" source="y3xUDOiN2P6re7Y66Ths-3" edge="1">
                    <mxGeometry relative="1" as="geometry">
                        <mxPoint x="2119.9411764705883" y="-600" as="targetPoint"/>
                    </mxGeometry>
                </mxCell>
                <mxCell id="y3xUDOiN2P6re7Y66Ths-31" style="edgeStyle=orthogonalEdgeStyle;rounded=0;orthogonalLoop=1;jettySize=auto;html=1;endArrow=classic;endFill=1;strokeColor=#82b366;fillColor=#d5e8d4;" parent="1" edge="1">
                    <mxGeometry relative="1" as="geometry">
                        <mxPoint x="2119.71" y="-230" as="targetPoint"/>
                        <mxPoint x="2119.71" y="-340" as="sourcePoint"/>
                        <Array as="points">
                            <mxPoint x="2119.71" y="-320"/>
                            <mxPoint x="2119.71" y="-320"/>
                        </Array>
                    </mxGeometry>
                </mxCell>
                <mxCell id="y3xUDOiN2P6re7Y66Ths-3" value="getContextSingleDetailIntent" style="rounded=0;whiteSpace=wrap;html=1;" parent="1" vertex="1">
                    <mxGeometry x="2040" y="-520" width="160" height="60" as="geometry"/>
                </mxCell>
                <mxCell id="HdAeh4qbqGSW-Bejk3lR-2" style="edgeStyle=orthogonalEdgeStyle;rounded=0;orthogonalLoop=1;jettySize=auto;html=1;exitX=0.5;exitY=0;exitDx=0;exitDy=0;startArrow=classic;startFill=1;endArrow=none;endFill=0;fillColor=#d5e8d4;strokeColor=#82b366;" parent="1" source="y3xUDOiN2P6re7Y66Ths-9" edge="1">
                    <mxGeometry relative="1" as="geometry">
                        <mxPoint x="2840" y="-600" as="targetPoint"/>
                    </mxGeometry>
                </mxCell>
                <mxCell id="HdAeh4qbqGSW-Bejk3lR-4" style="edgeStyle=orthogonalEdgeStyle;rounded=0;orthogonalLoop=1;jettySize=auto;html=1;exitX=0.5;exitY=1;exitDx=0;exitDy=0;dashed=1;startArrow=none;startFill=0;endArrow=classic;endFill=1;" parent="1" source="y3xUDOiN2P6re7Y66Ths-9" edge="1">
                    <mxGeometry relative="1" as="geometry">
                        <mxPoint x="2840" y="-360" as="targetPoint"/>
                    </mxGeometry>
                </mxCell>
                <mxCell id="y3xUDOiN2P6re7Y66Ths-9" value="teminateWithThankYouIntent" style="rounded=0;whiteSpace=wrap;html=1;" parent="1" vertex="1">
                    <mxGeometry x="2760" y="-520" width="160" height="60" as="geometry"/>
                </mxCell>
                <mxCell id="y3xUDOiN2P6re7Y66Ths-19" value="" style="endArrow=none;html=1;fillColor=#d5e8d4;strokeColor=#82b366;" parent="1" edge="1">
                    <mxGeometry width="50" height="50" relative="1" as="geometry">
                        <mxPoint x="1640" y="-600" as="sourcePoint"/>
                        <mxPoint x="2840" y="-600" as="targetPoint"/>
                    </mxGeometry>
                </mxCell>
                <mxCell id="HdAeh4qbqGSW-Bejk3lR-6" value="Context State" style="text;html=1;align=center;verticalAlign=middle;whiteSpace=wrap;rounded=0;fontColor=#00CC00;" parent="1" vertex="1">
                    <mxGeometry x="1440" y="-610" width="80" height="20" as="geometry"/>
                </mxCell>
                <mxCell id="HdAeh4qbqGSW-Bejk3lR-9" style="edgeStyle=orthogonalEdgeStyle;rounded=0;orthogonalLoop=1;jettySize=auto;html=1;exitX=0.5;exitY=0;exitDx=0;exitDy=0;startArrow=classic;startFill=1;endArrow=none;endFill=0;fontColor=#00CC00;fillColor=#d5e8d4;strokeColor=#82b366;" parent="1" source="HdAeh4qbqGSW-Bejk3lR-8" edge="1">
                    <mxGeometry relative="1" as="geometry">
                        <mxPoint x="2360.2857142857147" y="-600" as="targetPoint"/>
                    </mxGeometry>
                </mxCell>
                <mxCell id="HdAeh4qbqGSW-Bejk3lR-10" style="edgeStyle=orthogonalEdgeStyle;rounded=0;orthogonalLoop=1;jettySize=auto;html=1;exitX=0.5;exitY=1;exitDx=0;exitDy=0;startArrow=none;startFill=0;endArrow=classic;endFill=1;fontColor=#00CC00;fillColor=#d5e8d4;strokeColor=#82b366;" parent="1" source="HdAeh4qbqGSW-Bejk3lR-8" edge="1">
                    <mxGeometry relative="1" as="geometry">
                        <mxPoint x="2360.2857142857147" y="-359.9999999999998" as="targetPoint"/>
                    </mxGeometry>
                </mxCell>
                <mxCell id="HdAeh4qbqGSW-Bejk3lR-8" value="repeatIntent" style="rounded=0;whiteSpace=wrap;html=1;" parent="1" vertex="1">
                    <mxGeometry x="2280" y="-520" width="160" height="60" as="geometry"/>
                </mxCell>
                <mxCell id="2" value="getDetailNameIntent" style="rounded=0;whiteSpace=wrap;html=1;" vertex="1" parent="1">
                    <mxGeometry x="1920" y="-750" width="160" height="60" as="geometry"/>
                </mxCell>
                <mxCell id="3" value="" style="endArrow=classic;html=1;exitX=0.5;exitY=1;exitDx=0;exitDy=0;" edge="1" parent="1" source="MGvzKNlJy8ga0nyBK8fZ-21" target="2">
                    <mxGeometry width="50" height="50" relative="1" as="geometry">
                        <mxPoint x="1990" y="-590" as="sourcePoint"/>
                        <mxPoint x="2040" y="-640" as="targetPoint"/>
                    </mxGeometry>
                </mxCell>
                <mxCell id="5" style="edgeStyle=orthogonalEdgeStyle;rounded=0;orthogonalLoop=1;jettySize=auto;html=1;endArrow=none;endFill=0;strokeColor=#82b366;fillColor=#d5e8d4;" edge="1" parent="1">
                    <mxGeometry relative="1" as="geometry">
                        <mxPoint x="2000" y="-600" as="targetPoint"/>
                        <Array as="points">
                            <mxPoint x="2000" y="-610"/>
                            <mxPoint x="2000" y="-610"/>
                        </Array>
                        <mxPoint x="2000" y="-690" as="sourcePoint"/>
                    </mxGeometry>
                </mxCell>
                <mxCell id="6" value="getDetailNameIntent" style="rounded=0;whiteSpace=wrap;html=1;" vertex="1" parent="1">
                    <mxGeometry x="2040" y="-390" width="160" height="60" as="geometry"/>
                </mxCell>
                <mxCell id="7" value="" style="endArrow=classic;html=1;exitX=0.5;exitY=1;exitDx=0;exitDy=0;" edge="1" parent="1" target="6">
                    <mxGeometry width="50" height="50" relative="1" as="geometry">
                        <mxPoint x="2120" y="-460" as="sourcePoint"/>
                        <mxPoint x="2160" y="-280" as="targetPoint"/>
                    </mxGeometry>
                </mxCell>
            </root>
        </mxGraphModel>
    </diagram>
</mxfile>